<svg xmlns="http://www.w3.org/2000/svg" viewBox="0 0 1024 1024">
  <defs>
    <radialGradient id="bgGrad" cx="50%" cy="18%" r="88%">
      <stop offset="0%" stop-color="#114731"/>
      <stop offset="52%" stop-color="#0A3D2A"/>
      <stop offset="100%" stop-color="#0B1F17"/>
    </radialGradient>
    <linearGradient id="goldGrad" x1="18%" y1="12%" x2="82%" y2="88%">
      <stop offset="0%" stop-color="#D8BC67"/>
      <stop offset="55%" stop-color="#C9A84C"/>
      <stop offset="100%" stop-color="#B88F2A"/>
    </linearGradient>
    <radialGradient id="halo" cx="49%" cy="37%" r="30%">
      <stop offset="0%" stop-color="#D4AF37" stop-opacity="0.28"/>
      <stop offset="100%" stop-color="#D4AF37" stop-opacity="0"/>
    </radialGradient>
    <filter id="calligraphyGlow" x="-30%" y="-30%" width="160%" height="160%">
      <feDropShadow dx="0" dy="0" stdDeviation="14" flood-color="#D4AF37" flood-opacity="0.26"/>
      <feDropShadow dx="0" dy="0" stdDeviation="28" flood-color="#FFF8E7" flood-opacity="0.08"/>
    </filter>
  </defs>

  <rect width="1024" height="1024" fill="#0B1F17"/>
  <rect x="20" y="20" width="984" height="984" rx="220" fill="url(#bgGrad)"/>
  <rect x="42" y="42" width="940" height="940" rx="198" fill="none" stroke="#D4AF37" stroke-width="2" opacity="0.1"/>

  <ellipse cx="506" cy="392" rx="250" ry="190" fill="url(#halo)"/>

  <g>
    <circle cx="434" cy="338" r="156" fill="url(#goldGrad)"/>
    <circle cx="505" cy="308" r="143" fill="#0B241B"/>
  </g>

  <g filter="url(#calligraphyGlow)">
    <text x="512" y="586" text-anchor="middle" direction="rtl" unicode-bidi="bidi-override" font-family="Noto Naskh Arabic, serif" font-size="278" font-weight="700" fill="#FFF8E7">فلاح</text>
  </g>

  <g opacity="0.58">
    <path d="M364 690c42-22 91-33 148-33 57 0 106 11 148 33" fill="none" stroke="#E9D8AA" stroke-width="16" stroke-linecap="round"/>
    <path d="M420 676c29-8 60-12 92-12 32 0 63 4 92 12" fill="none" stroke="#C9A84C" stroke-width="5" stroke-linecap="round" opacity="0.54"/>
  </g>
</svg>