<?xml version="1.0" encoding="UTF-8"?>
<svg xmlns="http://www.w3.org/2000/svg" viewBox="0 0 512 512" width="512" height="512">
  <defs>
    <linearGradient id="goldGrad" x1="0%" y1="100%" x2="0%" y2="0%">
      <stop offset="0%" stop-color="#8B6914"/>
      <stop offset="50%" stop-color="#D4AF37"/>
      <stop offset="100%" stop-color="#E8D088"/>
    </linearGradient>
  </defs>
  <rect width="512" height="512" rx="80" fill="#0A1628"/>
  <defs>
    <radialGradient id="vignette" cx="50%" cy="45%" r="60%">
      <stop offset="0%" stop-color="#0F2040" stop-opacity="1"/>
      <stop offset="100%" stop-color="#0A1628" stop-opacity="1"/>
    </radialGradient>
  </defs>
  <rect width="512" height="512" rx="80" fill="url(#vignette)"/>
  <g transform="rotate(-30, 256.0, 246.0)">
    <path d="M 360.55,127.78 A 171.00,171.00 0 1,0 360.55,364.22 A 136.80,136.80 0 1,1 360.55,127.78 Z" fill="url(#goldGrad)"/>
    <path d="M 301.60,204.20 L 310.85,216.06 L 325.78,214.22 L 323.94,229.15 L 335.80,238.40 L 323.94,247.65 L 325.78,262.58 L 310.85,260.74 L 301.60,272.60 L 292.35,260.74 L 277.42,262.58 L 279.26,247.65 L 267.40,238.40 L 279.26,229.15 L 277.42,214.22 L 292.35,216.06 Z" fill="url(#goldGrad)"/>
  </g>
</svg>