<?xml version="1.0" encoding="UTF-8"?>
<svg xmlns="http://www.w3.org/2000/svg" viewBox="0 0 1024 500" width="1024" height="500">
  <defs>
    <linearGradient id="goldGrad" x1="0%" y1="100%" x2="0%" y2="0%">
      <stop offset="0%" stop-color="#8B6914"/>
      <stop offset="50%" stop-color="#D4AF37"/>
      <stop offset="100%" stop-color="#E8D088"/>
    </linearGradient>
  </defs>
  <rect width="1024" height="500" fill="#0A1628"/>
  <defs>
    <pattern id="geoPattern" x="0" y="0" width="60" height="60" patternUnits="userSpaceOnUse">
      <path d="M30,0 L60,30 L30,60 L0,30 Z" fill="none" stroke="#D4AF37" stroke-width="0.3" opacity="0.08"/>
      <circle cx="30" cy="30" r="15" fill="none" stroke="#D4AF37" stroke-width="0.2" opacity="0.06"/>
    </pattern>
  </defs>
  <rect width="1024" height="500" fill="url(#geoPattern)"/>
  <g transform="rotate(-30, 300, 220)">
    <path d="M 377.03,132.89 A 126.00,126.00 0 1,0 377.03,307.11 A 100.80,100.80 0 1,1 377.03,132.89 Z" fill="url(#goldGrad)"/>
    <path d="M 333.60,189.20 L 340.42,197.94 L 351.42,196.58 L 350.06,207.58 L 358.80,214.40 L 350.06,221.22 L 351.42,232.22 L 340.42,230.86 L 333.60,239.60 L 326.78,230.86 L 315.78,232.22 L 317.14,221.22 L 308.40,214.40 L 317.14,207.58 L 315.78,196.58 L 326.78,197.94 Z" fill="url(#goldGrad)"/>
  </g>
  <text x="680" y="210" text-anchor="middle" font-family="Amiri, 'Noto Naskh Arabic', serif" font-weight="bold" font-size="80" fill="url(#goldGrad)" direction="rtl" xml:lang="ar">فلاح</text>
  <text x="680" y="275" text-anchor="middle" font-family="'Cormorant Garamond', 'Noto Serif', Georgia, serif" font-weight="600" font-size="32" letter-spacing="5" fill="url(#goldGrad)">FALAH</text>
  <text x="680" y="320" text-anchor="middle" font-family="'IBM Plex Sans', 'Noto Sans', Helvetica, sans-serif" font-weight="300" font-size="18" fill="#E8D088" opacity="0.7">Your Daily Islamic Companion</text>
  <line x1="100" y1="390" x2="924" y2="390" stroke="#D4AF37" stroke-width="0.8" opacity="0.4"/>
  <text x="512.0" y="430" text-anchor="middle" font-family="'IBM Plex Sans', 'Noto Sans', Helvetica, sans-serif" font-weight="300" font-size="16" fill="#4A5A6E">Free · Offline · No Ads</text>
</svg>