<?xml version="1.0" encoding="UTF-8"?>
<svg xmlns="http://www.w3.org/2000/svg" viewBox="0 0 200 200" width="200" height="200">
  <defs>
    <linearGradient id="goldGrad" x1="0%" y1="100%" x2="0%" y2="0%">
      <stop offset="0%" stop-color="#8B6914"/>
      <stop offset="50%" stop-color="#D4AF37"/>
      <stop offset="100%" stop-color="#E8D088"/>
    </linearGradient>
  </defs>
  <rect width="200" height="200" rx="20" fill="#0A1628"/>
  <g transform="rotate(-30, 100, 100)">
    <path d="M 144.02,50.22 A 72.00,72.00 0 1,0 144.02,149.78 A 57.60,57.60 0 1,1 144.02,50.22 Z" fill="url(#goldGrad)"/>
    <path d="M 119.20,82.40 L 123.10,87.39 L 129.38,86.62 L 128.61,92.90 L 133.60,96.80 L 128.61,100.70 L 129.38,106.98 L 123.10,106.21 L 119.20,111.20 L 115.30,106.21 L 109.02,106.98 L 109.79,100.70 L 104.80,96.80 L 109.79,92.90 L 109.02,86.62 L 115.30,87.39 Z" fill="url(#goldGrad)"/>
  </g>
</svg>